<?xml version="1.0" encoding="UTF-8"?>
<!DOCTYPE svg PUBLIC "-//W3C//DTD SVG 1.1//EN"
        "http://www.w3.org/Graphics/SVG/1.1/DTD/svg11.dtd">
<svg
  xmlns="http://www.w3.org/2000/svg"
  xmlns:xlink="http://www.w3.org/1999/xlink"
  version="1.1"
  width="720pt"
  height="540pt"
  viewBox="0 0 720 540"
  >
  <rect
    x="0"
    y="0"
    width="720"
    height="540"
    stroke="none"
    fill="#000000"
    fill-opacity="1.000000"
    />
  <g
    transform="matrix(1 0 0 -1 0 540)"
    >
    <polyline
      stroke-width="0.000000e+00"
      stroke="#000000"
      stroke-opacity="1.000000"
      fill="none"
      points="100.79,63.00 657.00,63.00"
      />
    <polyline
      stroke-width="0.000000e+00"
      stroke="#000000"
      stroke-opacity="1.000000"
      fill="none"
      points="100.79,63.00 100.79,67.72"
      />
    <polyline
      stroke-width="0.000000e+00"
      stroke="#000000"
      stroke-opacity="1.000000"
      fill="none"
      points="147.13,63.00 147.13,67.72"
      />
    <polyline
      stroke-width="0.000000e+00"
      stroke="#000000"
      stroke-opacity="1.000000"
      fill="none"
      points="193.50,63.00 193.50,72.45"
      />
    <polyline
      stroke-width="0.000000e+00"
      stroke="#000000"
      stroke-opacity="1.000000"
      fill="none"
      points="239.84,63.00 239.84,67.72"
      />
    <polyline
      stroke-width="0.000000e+00"
      stroke="#000000"
      stroke-opacity="1.000000"
      fill="none"
      points="286.18,63.00 286.18,67.72"
      />
    <polyline
      stroke-width="0.000000e+00"
      stroke="#000000"
      stroke-opacity="1.000000"
      fill="none"
      points="332.54,63.00 332.54,67.72"
      />
    <polyline
      stroke-width="0.000000e+00"
      stroke="#000000"
      stroke-opacity="1.000000"
      fill="none"
      points="378.89,63.00 378.89,72.45"
      />
    <polyline
      stroke-width="0.000000e+00"
      stroke="#000000"
      stroke-opacity="1.000000"
      fill="none"
      points="425.25,63.00 425.25,67.72"
      />
    <polyline
      stroke-width="0.000000e+00"
      stroke="#000000"
      stroke-opacity="1.000000"
      fill="none"
      points="471.59,63.00 471.59,67.72"
      />
    <polyline
      stroke-width="0.000000e+00"
      stroke="#000000"
      stroke-opacity="1.000000"
      fill="none"
      points="517.93,63.00 517.93,67.72"
      />
    <polyline
      stroke-width="0.000000e+00"
      stroke="#000000"
      stroke-opacity="1.000000"
      fill="none"
      points="564.30,63.00 564.30,72.45"
      />
    <polyline
      stroke-width="0.000000e+00"
      stroke="#000000"
      stroke-opacity="1.000000"
      fill="none"
      points="610.64,63.00 610.64,67.72"
      />
    <polyline
      stroke-width="0.000000e+00"
      stroke="#000000"
      stroke-opacity="1.000000"
      fill="none"
      points="656.98,63.00 656.98,67.72"
      />
    <polyline
      stroke-width="0.000000e+00"
      stroke="#000000"
      stroke-opacity="1.000000"
      fill="none"
      points="657.00,63.00 657.00,477.00"
      />
    <polyline
      stroke-width="0.000000e+00"
      stroke="#000000"
      stroke-opacity="1.000000"
      fill="none"
      points="652.28,81.96 657.00,81.96"
      />
    <polyline
      stroke-width="0.000000e+00"
      stroke="#000000"
      stroke-opacity="1.000000"
      fill="none"
      points="652.28,102.75 657.00,102.75"
      />
    <polyline
      stroke-width="0.000000e+00"
      stroke="#000000"
      stroke-opacity="1.000000"
      fill="none"
      points="652.28,123.53 657.00,123.53"
      />
    <polyline
      stroke-width="0.000000e+00"
      stroke="#000000"
      stroke-opacity="1.000000"
      fill="none"
      points="647.55,144.32 657.00,144.32"
      />
    <polyline
      stroke-width="0.000000e+00"
      stroke="#000000"
      stroke-opacity="1.000000"
      fill="none"
      points="652.28,165.11 657.00,165.11"
      />
    <polyline
      stroke-width="0.000000e+00"
      stroke="#000000"
      stroke-opacity="1.000000"
      fill="none"
      points="652.28,185.92 657.00,185.92"
      />
    <polyline
      stroke-width="0.000000e+00"
      stroke="#000000"
      stroke-opacity="1.000000"
      fill="none"
      points="652.28,206.70 657.00,206.70"
      />
    <polyline
      stroke-width="0.000000e+00"
      stroke="#000000"
      stroke-opacity="1.000000"
      fill="none"
      points="647.55,227.49 657.00,227.49"
      />
    <polyline
      stroke-width="0.000000e+00"
      stroke="#000000"
      stroke-opacity="1.000000"
      fill="none"
      points="652.28,248.28 657.00,248.28"
      />
    <polyline
      stroke-width="0.000000e+00"
      stroke="#000000"
      stroke-opacity="1.000000"
      fill="none"
      points="652.28,269.06 657.00,269.06"
      />
    <polyline
      stroke-width="0.000000e+00"
      stroke="#000000"
      stroke-opacity="1.000000"
      fill="none"
      points="652.28,289.87 657.00,289.87"
      />
    <polyline
      stroke-width="0.000000e+00"
      stroke="#000000"
      stroke-opacity="1.000000"
      fill="none"
      points="647.55,310.66 657.00,310.66"
      />
    <polyline
      stroke-width="0.000000e+00"
      stroke="#000000"
      stroke-opacity="1.000000"
      fill="none"
      points="652.28,331.45 657.00,331.45"
      />
    <polyline
      stroke-width="0.000000e+00"
      stroke="#000000"
      stroke-opacity="1.000000"
      fill="none"
      points="652.28,352.23 657.00,352.23"
      />
    <polyline
      stroke-width="0.000000e+00"
      stroke="#000000"
      stroke-opacity="1.000000"
      fill="none"
      points="652.28,373.04 657.00,373.04"
      />
    <polyline
      stroke-width="0.000000e+00"
      stroke="#000000"
      stroke-opacity="1.000000"
      fill="none"
      points="647.55,393.83 657.00,393.83"
      />
    <polyline
      stroke-width="0.000000e+00"
      stroke="#000000"
      stroke-opacity="1.000000"
      fill="none"
      points="652.28,414.61 657.00,414.61"
      />
    <polyline
      stroke-width="0.000000e+00"
      stroke="#000000"
      stroke-opacity="1.000000"
      fill="none"
      points="652.28,435.40 657.00,435.40"
      />
    <polyline
      stroke-width="0.000000e+00"
      stroke="#000000"
      stroke-opacity="1.000000"
      fill="none"
      points="652.28,456.19 657.00,456.19"
      />
    <polyline
      stroke-width="0.000000e+00"
      stroke="#000000"
      stroke-opacity="1.000000"
      fill="none"
      points="647.55,477.00 657.00,477.00"
      />
    <polyline
      stroke-width="0.000000e+00"
      stroke="#000000"
      stroke-opacity="1.000000"
      fill="none"
      points="657.00,477.00 100.79,477.00"
      />
    <polyline
      stroke-width="0.000000e+00"
      stroke="#000000"
      stroke-opacity="1.000000"
      fill="none"
      points="656.98,472.27 656.98,477.00"
      />
    <polyline
      stroke-width="0.000000e+00"
      stroke="#000000"
      stroke-opacity="1.000000"
      fill="none"
      points="610.64,472.27 610.64,477.00"
      />
    <polyline
      stroke-width="0.000000e+00"
      stroke="#000000"
      stroke-opacity="1.000000"
      fill="none"
      points="564.30,467.55 564.30,477.00"
      />
    <polyline
      stroke-width="0.000000e+00"
      stroke="#000000"
      stroke-opacity="1.000000"
      fill="none"
      points="517.93,472.27 517.93,477.00"
      />
    <polyline
      stroke-width="0.000000e+00"
      stroke="#000000"
      stroke-opacity="1.000000"
      fill="none"
      points="471.59,472.27 471.59,477.00"
      />
    <polyline
      stroke-width="0.000000e+00"
      stroke="#000000"
      stroke-opacity="1.000000"
      fill="none"
      points="425.25,472.27 425.25,477.00"
      />
    <polyline
      stroke-width="0.000000e+00"
      stroke="#000000"
      stroke-opacity="1.000000"
      fill="none"
      points="378.89,467.55 378.89,477.00"
      />
    <polyline
      stroke-width="0.000000e+00"
      stroke="#000000"
      stroke-opacity="1.000000"
      fill="none"
      points="332.54,472.27 332.54,477.00"
      />
    <polyline
      stroke-width="0.000000e+00"
      stroke="#000000"
      stroke-opacity="1.000000"
      fill="none"
      points="286.18,472.27 286.18,477.00"
      />
    <polyline
      stroke-width="0.000000e+00"
      stroke="#000000"
      stroke-opacity="1.000000"
      fill="none"
      points="239.84,472.27 239.84,477.00"
      />
    <polyline
      stroke-width="0.000000e+00"
      stroke="#000000"
      stroke-opacity="1.000000"
      fill="none"
      points="193.50,467.55 193.50,477.00"
      />
    <polyline
      stroke-width="0.000000e+00"
      stroke="#000000"
      stroke-opacity="1.000000"
      fill="none"
      points="147.13,472.27 147.13,477.00"
      />
    <polyline
      stroke-width="0.000000e+00"
      stroke="#000000"
      stroke-opacity="1.000000"
      fill="none"
      points="100.79,472.27 100.79,477.00"
      />
    <polyline
      stroke-width="0.000000e+00"
      stroke="#000000"
      stroke-opacity="1.000000"
      fill="none"
      points="100.79,477.00 100.79,63.00"
      />
    <polyline
      stroke-width="0.000000e+00"
      stroke="#000000"
      stroke-opacity="1.000000"
      fill="none"
      points="100.79,477.00 110.24,477.00"
      />
    <polyline
      stroke-width="0.000000e+00"
      stroke="#000000"
      stroke-opacity="1.000000"
      fill="none"
      points="100.79,456.19 105.52,456.19"
      />
    <polyline
      stroke-width="0.000000e+00"
      stroke="#000000"
      stroke-opacity="1.000000"
      fill="none"
      points="100.79,435.40 105.52,435.40"
      />
    <polyline
      stroke-width="0.000000e+00"
      stroke="#000000"
      stroke-opacity="1.000000"
      fill="none"
      points="100.79,414.61 105.52,414.61"
      />
    <polyline
      stroke-width="0.000000e+00"
      stroke="#000000"
      stroke-opacity="1.000000"
      fill="none"
      points="100.79,393.83 110.24,393.83"
      />
    <polyline
      stroke-width="0.000000e+00"
      stroke="#000000"
      stroke-opacity="1.000000"
      fill="none"
      points="100.79,373.04 105.52,373.04"
      />
    <polyline
      stroke-width="0.000000e+00"
      stroke="#000000"
      stroke-opacity="1.000000"
      fill="none"
      points="100.79,352.23 105.52,352.23"
      />
    <polyline
      stroke-width="0.000000e+00"
      stroke="#000000"
      stroke-opacity="1.000000"
      fill="none"
      points="100.79,331.45 105.52,331.45"
      />
    <polyline
      stroke-width="0.000000e+00"
      stroke="#000000"
      stroke-opacity="1.000000"
      fill="none"
      points="100.79,310.66 110.24,310.66"
      />
    <polyline
      stroke-width="0.000000e+00"
      stroke="#000000"
      stroke-opacity="1.000000"
      fill="none"
      points="100.79,289.87 105.52,289.87"
      />
    <polyline
      stroke-width="0.000000e+00"
      stroke="#000000"
      stroke-opacity="1.000000"
      fill="none"
      points="100.79,269.06 105.52,269.06"
      />
    <polyline
      stroke-width="0.000000e+00"
      stroke="#000000"
      stroke-opacity="1.000000"
      fill="none"
      points="100.79,248.28 105.52,248.28"
      />
    <polyline
      stroke-width="0.000000e+00"
      stroke="#000000"
      stroke-opacity="1.000000"
      fill="none"
      points="100.79,227.49 110.24,227.49"
      />
    <polyline
      stroke-width="0.000000e+00"
      stroke="#000000"
      stroke-opacity="1.000000"
      fill="none"
      points="100.79,206.70 105.52,206.70"
      />
    <polyline
      stroke-width="0.000000e+00"
      stroke="#000000"
      stroke-opacity="1.000000"
      fill="none"
      points="100.79,185.92 105.52,185.92"
      />
    <polyline
      stroke-width="0.000000e+00"
      stroke="#000000"
      stroke-opacity="1.000000"
      fill="none"
      points="100.79,165.11 105.52,165.11"
      />
    <polyline
      stroke-width="0.000000e+00"
      stroke="#000000"
      stroke-opacity="1.000000"
      fill="none"
      points="100.79,144.32 110.24,144.32"
      />
    <polyline
      stroke-width="0.000000e+00"
      stroke="#000000"
      stroke-opacity="1.000000"
      fill="none"
      points="100.79,123.53 105.52,123.53"
      />
    <polyline
      stroke-width="0.000000e+00"
      stroke="#000000"
      stroke-opacity="1.000000"
      fill="none"
      points="100.79,102.75 105.52,102.75"
      />
    <polyline
      stroke-width="0.000000e+00"
      stroke="#000000"
      stroke-opacity="1.000000"
      fill="none"
      points="100.79,81.96 105.52,81.96"
      />
    <clipPath
      id="text-clipping0"
      >
      <polygon
        points="0.000000,0.000000 0.000000,539.994507 720.000000,539.994507 720.000000,0.000000"
        />
    </clipPath>
    <g
      clip-path="url(#text-clipping0)"
      >
      <text
        dominant-baseline="no-change"
        fill="#000000"
        fill-opacity="1.000000"
        xml:space="preserve"
        font-size="16"
        transform="matrix(1.000000 0.000000 0.000000 -1.000000 193.497116 44.100467)"
        text-anchor="middle"
        x="0.000000"
        y="6.451584"
><tspan font-family="sans-serif" font-style="normal" font-weight="normal">&#x2d;&#x32;</tspan></text>
    </g>
    <g
      clip-path="url(#text-clipping0)"
      >
      <text
        dominant-baseline="no-change"
        fill="#000000"
        fill-opacity="1.000000"
        xml:space="preserve"
        font-size="16"
        transform="matrix(1.000000 0.000000 0.000000 -1.000000 378.908048 44.100467)"
        text-anchor="middle"
        x="0.000000"
        y="6.451584"
><tspan font-family="sans-serif" font-style="normal" font-weight="normal">&#x30;</tspan></text>
    </g>
    <g
      clip-path="url(#text-clipping0)"
      >
      <text
        dominant-baseline="no-change"
        fill="#000000"
        fill-opacity="1.000000"
        xml:space="preserve"
        font-size="16"
        transform="matrix(1.000000 0.000000 0.000000 -1.000000 564.297006 44.100467)"
        text-anchor="middle"
        x="0.000000"
        y="6.451584"
><tspan font-family="sans-serif" font-style="normal" font-weight="normal">&#x32;</tspan></text>
    </g>
    <g
      clip-path="url(#text-clipping0)"
      >
      <text
        dominant-baseline="no-change"
        fill="#000000"
        fill-opacity="1.000000"
        xml:space="preserve"
        font-size="16"
        transform="matrix(1.000000 0.000000 0.000000 -1.000000 94.507279 144.342784)"
        text-anchor="end"
        x="0.000000"
        y="6.451584"
><tspan font-family="sans-serif" font-style="normal" font-weight="normal">&#x30;&#x2e;&#x32;</tspan></text>
    </g>
    <g
      clip-path="url(#text-clipping0)"
      >
      <text
        dominant-baseline="no-change"
        fill="#000000"
        fill-opacity="1.000000"
        xml:space="preserve"
        font-size="16"
        transform="matrix(1.000000 0.000000 0.000000 -1.000000 94.507279 227.489853)"
        text-anchor="end"
        x="0.000000"
        y="6.451584"
><tspan font-family="sans-serif" font-style="normal" font-weight="normal">&#x30;&#x2e;&#x34;</tspan></text>
    </g>
    <g
      clip-path="url(#text-clipping0)"
      >
      <text
        dominant-baseline="no-change"
        fill="#000000"
        fill-opacity="1.000000"
        xml:space="preserve"
        font-size="16"
        transform="matrix(1.000000 0.000000 0.000000 -1.000000 94.507279 310.658895)"
        text-anchor="end"
        x="0.000000"
        y="6.451584"
><tspan font-family="sans-serif" font-style="normal" font-weight="normal">&#x30;&#x2e;&#x36;</tspan></text>
    </g>
    <g
      clip-path="url(#text-clipping0)"
      >
      <text
        dominant-baseline="no-change"
        fill="#000000"
        fill-opacity="1.000000"
        xml:space="preserve"
        font-size="16"
        transform="matrix(1.000000 0.000000 0.000000 -1.000000 94.507279 393.827937)"
        text-anchor="end"
        x="0.000000"
        y="6.451584"
><tspan font-family="sans-serif" font-style="normal" font-weight="normal">&#x30;&#x2e;&#x38;</tspan></text>
    </g>
    <g
      clip-path="url(#text-clipping0)"
      >
      <text
        dominant-baseline="no-change"
        fill="#000000"
        fill-opacity="1.000000"
        xml:space="preserve"
        font-size="16"
        transform="matrix(1.000000 0.000000 0.000000 -1.000000 94.507279 476.996979)"
        text-anchor="end"
        x="0.000000"
        y="6.451584"
><tspan font-family="sans-serif" font-style="normal" font-weight="normal">&#x31;&#x2e;&#x30;</tspan></text>
    </g>
    <g
      clip-path="url(#text-clipping0)"
      >
      <text
        dominant-baseline="no-change"
        fill="#000000"
        fill-opacity="1.000000"
        xml:space="preserve"
        font-size="16"
        transform="matrix(1.000000 0.000000 0.000000 -1.000000 378.908048 22.676473)"
        text-anchor="middle"
        x="0.000000"
        y="6.451584"
><tspan font-family="sans-serif" font-style="normal" font-weight="normal">&#x78;</tspan></text>
    </g>
    <g
      clip-path="url(#text-clipping0)"
      >
      <text
        dominant-baseline="no-change"
        fill="#000000"
        fill-opacity="1.000000"
        xml:space="preserve"
        font-size="16"
        transform="matrix(0.000000 1.000000 1.000000 -0.000000 37.794122 270.008240)"
        text-anchor="middle"
        x="0.000000"
        y="6.451584"
><tspan font-family="sans-serif" font-style="normal" font-weight="normal">&#x79;</tspan></text>
    </g>
    <polyline
      stroke-width="0.000000e+00"
      stroke="#000000"
      stroke-opacity="1.000000"
      fill="none"
      points="100.79,63.00 106.42,63.06 112.02,63.13 117.65,63.17 123.27,63.24 128.87,63.31 134.50,63.37 140.12,63.44 145.73,63.50 151.35,63.55 
      156.98,63.61 162.58,63.68 168.21,63.74 173.83,63.81 179.43,63.88 185.06,63.92 190.68,64.49 196.29,65.11 201.91,67.13 207.54,71.22 
      213.16,74.56 218.77,76.18 224.39,77.65 230.02,82.31 235.62,84.66 241.25,90.57 246.87,93.04 252.47,94.16 258.10,100.81 263.72,104.66 
      269.33,107.27 274.95,113.23 280.58,116.24 286.18,127.23 291.81,131.38 297.43,139.20 303.03,144.61 308.66,148.21 314.28,158.56 319.89,167.00 
      325.51,175.59 331.14,185.50 336.76,198.84 342.37,203.98 347.99,210.99 353.62,222.04 359.22,237.97 364.85,248.91 370.47,266.40 376.07,273.92 
      381.70,282.29 387.32,294.22 392.93,308.77 398.55,318.96 404.18,326.88 409.78,333.09 415.41,341.03 421.03,353.70 426.63,363.09 432.26,376.58 
      437.88,384.97 443.49,390.64 449.11,397.37 454.74,399.94 460.36,406.57 465.97,412.81 471.59,421.12 477.22,423.60 482.82,428.99 488.45,437.07 
      494.07,440.13 499.67,440.83 505.30,442.10 510.92,443.66 516.53,445.49 522.15,447.88 527.78,452.54 533.38,454.41 539.01,457.84 544.63,463.94 
      550.23,468.52 555.86,470.58 561.48,471.20 567.09,472.01 572.71,472.95 578.34,473.61 583.96,474.29 589.57,475.35 595.19,475.72 600.82,475.85 
      606.42,476.01 612.05,476.16 617.67,476.29 623.27,476.45 628.90,476.60 634.52,476.73 640.13,476.89 645.75,477.00 651.38,477.00 656.98,477.00 
      "/>
    <polyline
      stroke-width="0.000000e+00"
      stroke="#000000"
      stroke-opacity="1.000000"
      fill="none"
      points="100.79,63.00 106.42,63.06 112.02,63.13 117.65,63.17 123.27,63.24 128.87,63.31 134.50,63.37 140.12,63.44 145.73,63.50 151.35,63.55 
      156.98,63.61 162.58,63.68 168.21,63.74 173.83,63.81 179.43,63.88 185.06,63.92 190.68,64.49 196.29,65.11 201.91,67.13 207.54,71.22 
      213.16,74.56 218.77,76.18 224.39,77.65 230.02,82.31 235.62,84.66 241.25,90.57 246.87,93.04 252.47,94.16 258.10,100.81 263.72,104.66 
      269.33,107.27 274.95,113.23 280.58,116.24 286.18,127.23 291.81,131.38 297.43,139.20 303.03,144.61 308.66,148.21 314.28,158.56 319.89,167.00 
      325.51,175.59 331.14,185.50 336.76,198.84 342.37,203.98 347.99,210.99 353.62,222.04 359.22,237.97 364.85,248.91 370.47,266.40 376.07,273.92 
      381.70,282.29 387.32,294.22 392.93,308.77 398.55,318.96 404.18,326.88 409.78,333.09 415.41,341.03 421.03,353.70 426.63,363.09 432.26,376.58 
      437.88,384.97 443.49,390.64 449.11,397.37 454.74,399.94 460.36,406.57 465.97,412.81 471.59,421.12 477.22,423.60 482.82,428.99 488.45,437.07 
      494.07,440.13 499.67,440.83 505.30,442.10 510.92,443.66 516.53,445.49 522.15,447.88 527.78,452.54 533.38,454.41 539.01,457.84 544.63,463.94 
      550.23,468.52 555.86,470.58 561.48,471.20 567.09,472.01 572.71,472.95 578.34,473.61 583.96,474.29 589.57,475.35 595.19,475.72 600.82,475.85 
      606.42,476.01 612.05,476.16 617.67,476.29 623.27,476.45 628.90,476.60 634.52,476.73 640.13,476.89 645.75,477.00 651.38,477.00 656.98,477.00 
      "/>
  </g>
</svg>
